<svg width="2000" height="650" viewBox="0 0 2000 650" fill="none" xmlns="http://www.w3.org/2000/svg">
<mask id="mask0_8_95" style="mask-type:alpha" maskUnits="userSpaceOnUse" x="0" y="0" width="2000" height="650">
<path d="M1984.21 306.995H1831.92V0L1984.21 0V62.4857H1893.71L1903.25 146.301H1956.15V208.786H1903.25L1893.71 244.509H1984.21V306.995Z" fill="#00FFBB"/>
<path d="M1626.06 645.625H1578.09C1576.04 645.625 1573.36 645.369 1570.03 644.857C1566.71 644.601 1563.25 644.09 1559.67 643.322C1556.09 642.811 1552.76 642.171 1549.69 641.403C1546.62 640.892 1544.32 640.38 1542.79 639.868C1523.6 633.729 1506.97 625.286 1492.9 614.541C1479.08 604.052 1467.7 592.156 1458.75 578.853C1450.05 565.55 1443.52 551.607 1439.18 537.025C1435.08 522.443 1433.04 508.116 1433.04 494.046C1433.04 474.859 1436.36 456.951 1443.01 440.322C1449.66 423.693 1458.36 408.983 1469.11 396.191C1479.85 383.4 1492 372.783 1505.56 364.34C1519.12 355.898 1532.81 350.142 1546.62 347.072C1547.14 347.072 1548.8 346.688 1551.61 345.921C1554.43 345.153 1556.86 344.642 1558.9 344.386C1561.21 343.874 1564.15 343.362 1567.73 342.851C1571.57 342.339 1575.28 342.083 1578.86 342.083H1626.06V403.866H1577.32C1576.56 403.866 1575.28 403.994 1573.49 404.25C1571.7 404.506 1569.9 404.889 1568.11 405.401C1566.32 405.657 1564.66 406.041 1563.12 406.552C1561.85 406.808 1561.21 406.936 1561.21 406.936C1556.6 407.959 1551.61 409.75 1546.24 412.308C1540.87 414.867 1535.62 418.065 1530.51 421.902C1525.65 425.739 1520.91 430.089 1516.31 434.949C1511.96 439.81 1508.51 444.927 1505.95 450.299C1505.44 451.322 1504.92 452.346 1504.41 453.369C1503.9 454.136 1503.39 455.032 1502.88 456.055C1502.37 457.334 1501.85 458.613 1501.34 459.893C1501.09 460.916 1500.7 461.939 1500.19 462.963C1499.68 464.753 1499.04 466.672 1498.27 468.719C1497.76 470.51 1497.25 472.3 1496.74 474.091C1495.97 477.161 1495.46 480.615 1495.2 484.452C1494.95 488.034 1494.82 491.232 1494.82 494.046C1494.82 501.977 1495.84 510.163 1497.89 518.605C1500.19 526.792 1503.64 534.723 1508.25 542.398C1512.85 549.817 1518.87 556.724 1526.29 563.12C1533.96 569.515 1543.17 574.76 1553.91 578.853C1555.19 579.365 1556.73 579.877 1558.52 580.388C1560.31 580.9 1561.97 581.411 1563.51 581.923C1565.81 582.435 1568.5 582.946 1571.57 583.458C1574.89 583.97 1576.81 584.226 1577.32 584.226H1626.06V645.625Z" fill="#00FFBB"/>
<path d="M1068.17 401.115H968.299V460.884H1030.56V523.37H968.299V645.625H906.516V338.63L1068.17 338.63V401.115Z" fill="#00FFBB"/>
<path d="M513.589 642.171H446.434L390.791 518.989H306.645V642.171H244.862V338.63H426.863C427.374 338.63 429.165 338.885 432.235 339.397C435.305 339.909 437.991 340.42 440.294 340.932C446.945 342.211 453.725 344.514 460.632 347.839C467.539 351.165 474.319 355.77 480.97 361.654C487.11 367.538 492.099 373.678 495.937 380.074C500.03 386.47 502.972 392.354 504.763 397.726C505.274 399.261 505.786 401.052 506.298 403.099C507.065 405.145 507.705 407.064 508.216 408.855C508.984 412.692 509.495 415.506 509.751 417.297C510.007 418.832 510.135 420.111 510.135 421.135C510.135 421.902 510.135 422.797 510.135 423.821C510.135 424.844 510.135 426.507 510.135 428.809C510.135 435.973 509.24 443.392 507.449 451.067C505.658 458.741 502.716 466.288 498.623 473.707C494.529 480.871 489.157 487.65 482.505 494.046C475.854 500.442 467.667 505.942 457.946 510.547C457.69 510.803 457.306 511.059 456.795 511.314C456.539 511.314 456.155 511.57 455.643 512.082L513.589 642.171ZM448.736 428.809C448.736 424.46 447.457 419.728 444.899 414.611C442.34 409.239 437.735 405.145 431.084 402.331C429.805 401.819 428.27 401.436 426.479 401.18C424.688 400.668 423.537 400.412 423.025 400.412H306.645V457.206H423.025C423.537 457.206 424.688 456.951 426.479 456.439C428.27 455.927 429.805 455.416 431.084 454.904C437.735 452.09 442.34 448.252 444.899 443.392C447.457 438.275 448.736 433.414 448.736 428.809Z" fill="#00FFBB"/>
<path d="M1211.38 62.4857H1310V306.995H1371.79V62.4857H1467.72V0L1211.38 0V62.4857Z" fill="#00FFBB"/>
<path d="M1652.81 404.569H1697.63V649.078H1759.42V404.569H1805.08V342.083L1652.81 342.083V404.569Z" fill="#00FFBB"/>
<path d="M540.335 401.115H628.596V645.625H690.379V401.115H778.256V338.63L540.335 338.63V401.115Z" fill="#00FFBB"/>
<path d="M1184.64 91.2059C1184.64 98.9681 1183.48 107.118 1181.18 115.657C1179.14 123.936 1175.81 131.957 1171.2 139.72C1166.6 147.223 1160.46 154.338 1152.79 161.066C1145.37 167.534 1136.28 172.838 1125.54 176.978C1124.26 177.496 1122.73 178.013 1120.93 178.531C1119.14 179.048 1117.48 179.566 1115.95 180.083C1113.64 180.601 1110.83 181.118 1107.5 181.636C1104.43 182.153 1102.64 182.412 1102.13 182.412H913.713V306.995H851.93V0L1101.36 0C1101.88 0 1103.67 0.258744 1106.74 0.776233C1109.81 1.29371 1112.49 1.81119 1114.79 2.32868C1121.45 3.62238 1128.23 5.95103 1135.13 9.31464C1142.04 12.6783 1148.82 17.3356 1155.47 23.2866C1161.61 29.2376 1166.6 35.4474 1170.44 41.9159C1174.53 48.3844 1177.47 54.3354 1179.26 59.769C1179.78 61.3214 1180.29 63.1326 1180.8 65.2025C1181.57 67.2724 1182.21 69.213 1182.72 71.0241C1183.48 74.9052 1184 77.7514 1184.25 79.5626C1184.51 81.115 1184.64 82.4087 1184.64 83.4437C1184.64 84.2199 1184.64 85.1255 1184.64 86.1604C1184.64 87.1954 1184.64 88.8772 1184.64 91.2059ZM1123.24 91.2059C1123.24 86.8073 1121.96 82.0206 1119.4 76.8458C1116.84 71.4123 1112.24 67.2724 1105.58 64.4263C1104.31 63.9088 1102.77 63.5207 1100.98 63.262C1099.19 62.7445 1098.04 62.4857 1097.53 62.4857H913.713V119.926H1097.53C1098.04 119.926 1099.19 119.667 1100.98 119.15C1102.77 118.632 1104.31 118.115 1105.58 117.597C1112.24 114.751 1116.84 110.87 1119.4 105.954C1121.96 100.779 1123.24 95.8632 1123.24 91.2059Z" fill="#00FFBB"/>
<path d="M371.552 306.995H310.153L255.278 215.789H82.8887L61.7828 306.995H0L70.9926 0H300.56L371.552 306.995ZM274.082 153.303L255.278 70.636H136.444L97.0872 153.303H274.082Z" fill="#00FFBB"/>
<path d="M1061.48 649.078H1122.88L1177.76 557.872H1350.15L1371.25 649.078H1433.04L1362.04 342.083H1132.48L1061.48 649.078ZM1158.95 495.387L1177.76 412.719H1296.59L1335.95 495.387H1158.95Z" fill="#00FFBB"/>
<path d="M825.181 306.995H763.782L742.293 215.789H675.137L671.684 306.995H609.901L680.893 0L754.189 0L825.181 306.995ZM727.71 153.303L726.559 70.636L689.336 153.303H727.71Z" fill="#00FFBB"/>
<path d="M2.83738 645.625H64.2364L85.7261 554.419H152.881L156.335 645.625H218.118L147.125 338.63L73.83 338.63L2.83738 645.625ZM100.308 491.933L101.46 409.266L138.683 491.933H100.308Z" fill="#00FFBB"/>
<path d="M603.215 153.692C603.215 172.062 600.145 189.527 594.005 206.086C587.865 222.387 579.55 237.006 569.061 249.943C558.828 262.88 546.676 273.876 532.606 282.932C518.791 291.988 504.081 298.457 488.475 302.338C483.359 303.631 477.858 304.666 471.974 305.443C466.09 306.478 461.229 306.995 457.392 306.995H398.295V0H457.392C459.95 0 462.892 0.258744 466.218 0.776233C469.544 1.03497 472.87 1.55245 476.195 2.32868C479.777 2.84615 483.103 3.493 486.173 4.26922C489.243 5.04543 491.673 5.69228 493.464 6.20977C504.209 9.31464 514.442 13.4545 524.163 18.6293C533.885 23.8041 543.734 30.9194 553.712 39.9754C562.666 47.9963 569.829 56.1466 575.201 64.4263C580.83 72.7059 585.562 80.9856 589.4 89.2653C591.446 94.1814 593.365 99.6149 595.156 105.566C597.203 111.517 598.865 117.339 600.145 123.031C601.168 127.429 601.935 132.604 602.447 138.555C602.959 144.248 603.215 149.293 603.215 153.692ZM541.432 153.692C541.432 150.587 541.432 148.517 541.432 147.482C541.432 146.447 541.304 145.541 541.048 144.765C541.048 143.989 540.92 142.824 540.664 141.272C540.409 139.72 540.025 137.003 539.513 133.122C539.001 131.311 538.362 129.37 537.594 127.3C537.083 125.23 536.571 123.548 536.059 122.255C534.269 116.821 531.327 110.87 527.233 104.402C523.14 97.6744 518.023 91.4646 511.884 85.7723C505.488 79.8213 498.708 75.164 491.545 71.8004C484.638 68.4367 477.858 65.9787 471.207 64.4263C469.16 63.9088 466.602 63.5207 463.532 63.262C460.462 62.7445 458.671 62.4857 458.159 62.4857H460.078V244.509H458.159C459.694 244.509 461.613 244.38 463.916 244.121C466.218 243.862 468.521 243.474 470.823 242.957C473.125 242.181 475.3 241.534 477.347 241.016C479.393 240.499 481.056 239.981 482.335 239.464C493.08 235.324 502.162 230.02 509.581 223.551C517.256 217.083 523.396 209.968 528.001 202.205C532.862 194.443 536.315 186.422 538.362 178.143C540.409 169.604 541.432 161.454 541.432 153.692Z" fill="#00FFBB"/>
<path d="M1555.87 3.65967e-06L1555.87 306.995H1494.47L1494.47 0L1555.87 3.65967e-06Z" fill="#00FFBB"/>
<path d="M866.397 338.63L866.397 645.625H804.998L804.998 338.63L866.397 338.63Z" fill="#00FFBB"/>
<g clip-path="url(#clip0_8_95)">
<rect x="1631.1" y="-76.8413" width="433.239" height="61.399" transform="rotate(79.347 1631.1 -76.8413)" fill="#00FFBB"/>
<rect width="433.239" height="61.399" transform="matrix(-0.184861 0.982765 0.982765 0.184861 1757.29 -76.8413)" fill="#00FFBB"/>
<rect x="1678.58" y="244.608" width="32.609" height="62.3883" fill="transparent"/>
</g>
<path d="M1908.15 342.143H1991.66V402.759H1920.27C1892.25 401.681 1884.35 422.066 1883.9 432.393C1882.1 441.373 1884.44 460.142 1908.15 463.375C1931.85 466.608 1952.15 475.498 1959.33 479.539C1977.29 488.07 2009.98 518.872 1997.05 573.831C1984.12 628.79 1936.88 645.223 1914.88 646.57H1838.56V584.607H1914.88C1925.66 580.297 1933.74 570.239 1936.43 565.749C1941.37 554.524 1942.63 530.726 1908.15 525.338C1865.04 518.603 1850.22 498.398 1844.84 491.662C1839.45 484.927 1828.67 457.987 1832.71 401.412C1835.94 356.152 1884.35 343.041 1908.15 342.143Z" fill="#00FFBB"/>
</mask>
<g mask="url(#mask0_8_95)">
<g clip-path="url(#clip1_8_95)">
<rect width="4706.79" height="4706.79" transform="translate(-1353.2 -2027.84)" fill="#0B2AD3"/>
<g filter="url(#filter0_f_8_95)">
<path d="M-568.838 -303.391C-1250.63 -716.778 -515.413 -1002.95 219.283 -1629.2C220.745 -1630.44 222.592 -1631.48 224.404 -1632.12C830.072 -1845.74 402.479 -1505.01 743.18 -1146.69C1084.42 -787.797 939.296 -1038.83 1729.64 -1415.37C2519.99 -1791.91 2231.7 -1631.1 2949.49 -1505.58C3667.27 -1380.07 3363.29 -1254.55 3380.94 -787.798C3398.59 -321.041 2949.49 -195.527 2608.25 198.667C2267 592.861 2429.78 522.259 2608.25 1240.04C2786.71 1957.83 2733.76 1455.77 2429.78 2138.26C2125.8 2820.74 2106.19 2138.26 1908.11 1867.62C1710.03 1596.98 1688.56 2239.65 1308.09 2202.39C718.724 2144.66 1300.15 2267.1 743.18 2535.78C186.21 2804.46 886.345 1096.88 401.938 1724.45C-82.4694 2352.02 -207.984 1653.85 -568.838 971.365C-929.692 288.88 -262.896 647.773 60.6955 361.443C384.287 75.1138 113.647 110.415 -568.838 -303.391Z" fill="#00FFBB"/>
</g>
<g filter="url(#filter1_f_8_95)">
<path d="M310.511 -638.975C440.034 -930.402 501.682 -715.992 982.625 -494.209C984.324 -493.425 986.148 -492.993 988.019 -493.003C1063.99 -493.414 1252.72 -510.687 1423.2 -577.34C1638.92 -661.684 1715.16 -776.844 2089.84 -892.005C2464.52 -1007.17 2182.29 -853.078 2305.56 -492.996C2428.83 -132.913 2151.47 -332.418 1906.55 -63.1678C1661.63 206.083 1760.57 74.7014 1715.16 403.966C1669.74 733.23 1853.03 642.399 2089.84 1154.95C2326.65 1667.5 2097.95 1317.15 1799.5 1393.38C1501.05 1469.61 1606.48 1393.38 1246.4 1570.18C886.319 1746.97 1046.9 1638.3 709.521 1500.43C372.147 1362.56 310.511 1255.51 211.57 879.209C112.628 502.907 310.511 726.742 625.178 403.966C939.844 81.1894 694.923 -25.862 625.178 -171.841C555.432 -317.82 180.752 -347.016 310.511 -638.975Z" fill="#FFF623"/>
</g>
<g filter="url(#filter2_f_8_95)">
<path d="M1128.13 -254.262C1358.46 -299.677 1236.81 -259.127 1569.32 -254.262C1835.32 -197.492 1569.32 16.6112 1569.32 332.9C1569.32 649.188 1540.12 608.638 1410.36 840.583C1280.6 1072.53 1291.95 840.583 987.02 654.054C682.086 467.525 863.749 423.731 920.519 203.14C977.289 -17.4506 902.677 27.9656 863.749 -174.783C824.821 -377.532 897.811 -208.846 1128.13 -254.262Z" fill="#FF644F"/>
</g>
</g>
</g>
<defs>
<filter id="filter0_f_8_95" x="-1623.85" y="-2482.83" width="5838.4" height="5832.01" filterUnits="userSpaceOnUse" color-interpolation-filters="sRGB">
<feFlood flood-opacity="0" result="BackgroundImageFix"/>
<feBlend mode="normal" in="SourceGraphic" in2="BackgroundImageFix" result="shape"/>
<feGaussianBlur stdDeviation="392.232" result="effect1_foregroundBlur_8_95"/>
</filter>
<filter id="filter1_f_8_95" x="-138.468" y="-1253.99" width="2798.69" height="3240.55" filterUnits="userSpaceOnUse" color-interpolation-filters="sRGB">
<feFlood flood-opacity="0" result="BackgroundImageFix"/>
<feBlend mode="normal" in="SourceGraphic" in2="BackgroundImageFix" result="shape"/>
<feGaussianBlur stdDeviation="162.199" result="effect1_foregroundBlur_8_95"/>
</filter>
<filter id="filter2_f_8_95" x="490.554" y="-601.669" width="1521.39" height="1863.9" filterUnits="userSpaceOnUse" color-interpolation-filters="sRGB">
<feFlood flood-opacity="0" result="BackgroundImageFix"/>
<feBlend mode="normal" in="SourceGraphic" in2="BackgroundImageFix" result="shape"/>
<feGaussianBlur stdDeviation="162.199" result="effect1_foregroundBlur_8_95"/>
</filter>
<clipPath id="clip0_8_95">
<rect width="222.571" height="306.995" fill="white" transform="translate(1582.61)"/>
</clipPath>
<clipPath id="clip1_8_95">
<rect width="4706.79" height="4706.79" fill="white" transform="translate(-1353.2 -2027.84)"/>
</clipPath>
</defs>
</svg>
